<?xml version="1.0" encoding="UTF-8"?><svg id="Layer_1" xmlns="http://www.w3.org/2000/svg" viewBox="0 0 2495.3 2380.1"><defs><style>.cls-1{fill:none;stroke:#e6e6e6;stroke-linecap:round;stroke-linejoin:round;stroke-width:47px;}.cls-2{fill:#e6e6e6;stroke-width:0px;}</style></defs><path class="cls-2" d="m1695.3,98.3c-7.8,4.9-110,72.1-108.1,183.6,1.4,78.5,54.8,128.4,75.7,151.3,65.1,71.6,189.8,108.5,286.5,73,102.4-37.6,126.9-139.2,181.1-127,50.2,11.3,39.2,100.7,113.5,140.5,46.9,25.1,111.5,21.8,151.3-5.4,88.7-60.4,88.8-234.8,16.2-337.8-60.2-85.5-158.9-105.2-249.5-123.2-181.5-36.2-346.1-.4-466.7,45Z"/><path class="cls-2" d="m725,154.9c74.7,51.8,61.9,75,132.4,110.8,115.4,58.7,178.4,11.1,332.4,59.5,58.4,18.4,181.4,57,191.9,132.4,9.6,68.7-79.2,130.4-105.4,148.7-71.5,49.7-194.1,90.1-286.5,40.5-74.8-40.1-63.8-103.8-140.5-135.1-43.6-17.8-75-8.6-181.1,10.8-191.5,35-289,53.1-316.2,24.3-59.4-62.7,30.7-206.4-32.4-254-39.4-29.7-95.7,10.1-124.3-21.6-27.6-30.6-10.1-105.8,27-151.4,88.3-108.4,344.3-74.7,502.7,35.1Z"/><path class="cls-2" d="m1749.4,776.5c-39.1-8.3-67.4,127.3-151.3,135.1-61,5.7-86.5-62.1-132.4-51.3-78.8,18.4-111,242.8-62.2,267.6,33.4,16.9,82.7-70.7,145.9-54,59.3,15.6,58.9,103.8,102.7,108.1,49.2,4.8,104.8-100.8,124.3-189.2,21.3-96.8,7.3-209-27-216.3h0Z"/><path class="cls-2" d="m1487.2,592.7c-31.9.5-73.9,20.2-81.1,54-9.2,43.1,44.6,79.3,51.3,83.8,52.1,35,134.3,34.7,151.3,2.7,20.9-39-46.7-141.8-121.5-140.5h0Z"/><path class="cls-2" d="m1144,838.7c-73.4-2.1-81.4,95.8-170.3,113.5-59.8,11.9-78.6-28-229.7-43.2-27-2.7-62-5.1-91.9,16.2-1.8,1.3-42.5,31.2-37.8,70.3,3.7,30.8,33.5,49.6,40.5,54,93,58.6,212-60.1,305.4-2.7,26.3,16.2,16.3,25.2,59.5,59.5,33.5,26.6,94.7,75.1,148.7,62.2,74.2-17.8,127.7-150.4,83.8-243.2-16.3-34.3-56-85.1-108.2-86.6h0Z"/><path class="cls-2" d="m849.4,1114.3c-45.1-16.1-86.5,34.1-129.7,10.8-18.5-10-26.1-27.4-40.5-24.3-12.4,2.6-21.8,18.6-21.6,32.4.3,21.4,23.9,38.1,43.2,43.2,29.8,7.9,55.5-9.7,59.5-2.7,2.5,4.5-7.8,11.6-21.6,35.1-9.2,15.6-14.9,25.8-13.5,37.8,0,0,1.8,15.6,16.2,27,34.6,27.5,150.2-2.8,159.5-70.3,4.5-34.1-18.5-77.2-51.5-89h0Z"/><path class="cls-2" d="m779.1,1368.4c-27.4-10.3-63.3-5.5-86.5,16.2-20.4,19.1-23.9,44.8-24.3,48.7-8.8,73.2,96.5,95.5,121.6,191.9,19.8,76-33,110.3-2.7,159.5,32.8,53.4,134.6,77.2,175.7,35.1,25.1-25.7,24.2-72.7,10.8-105.4-22.5-54.8-69.5-42.7-102.7-94.6-38-59.4,6.5-101.8-37.8-191.9-21.9-44.5-43.3-55.4-54.1-59.5h0Z"/><path class="cls-2" d="m1779.1,1254.9c-60.6,19.4-170.7,19.6-232.4-24.3-27.7-19.7-25.1-33.7-54.1-46-30.4-12.9-83.7-18.8-110.8,13.5-25.3,30.2-13.8,77,0,102.7,30.1,56.2,101.1,67.8,132.4,73,38.3,6.3,29.9-3.8,145.9-10.8,56.4-3.4,94.4-3.2,135.1-27,26.2-15.3,35.3-29.8,37.8-43.2,2.3-12.3.1-29.6-10.8-37.8-13.3-10.4-34.7-2.8-43.1-.1h0Z"/><path class="cls-2" d="m2146.7,1187.3c-37.3-83.7-8.8-116.8-43.2-151.3-31.4-31.5-95.2-44.2-140.5-13.5-47.3,32-56.3,99-37.8,140.5,22,49.6,69.8,33.4,108.1,91.9,33.3,50.9,16.1,92.2,54.1,116.2,19.3,12.2,46.8,16.2,67.6,5.4,39.3-20.4,35.7-83.8,35.1-91.9-3-39.6-21.6-48.5-43.4-97.3h0Z"/><path class="cls-2" d="m695.3,2171.5c-8-74.6,160.5-185.6,283.8-159.9,58.3,12.2,62.2,45.7,135.1,67.6,85.8,25.7,210.7,18.5,273-51.3,73.2-82.1,24.6-211,64.9-221.6,33.8-8.9,92.6,75.3,132.4,132.4,35.7,51.1,33.7,61.1,56.8,78.4,54.7,41,99.1,9.8,162.2,40.5,70.1,34.2,112.3,119.9,94.6,143.2-16.8,22.2-79.2-23.4-167.6-29.3-131.6-8.7-216.2,77.6-297.3,123.9-270.1,154.1-725.5-7.6-737.9-123.9h0Z"/><path class="cls-2" d="m1295.3,1592.7c-42.2-11-106.9,13.3-132.4,70.3-22.7,50.7-5.7,107.4,29.7,140.5,6.7,6.3,45,42.2,86.5,32.4,61-14.3,51.8-109.3,116.2-132.4,47-16.9,70.6,27.1,137.8,13.5,36.1-7.3,89.7-32.1,100-73,15.6-61.5-70.1-145.5-148.7-181.1-56.4-25.5-90.2-17.4-127-56.8-34.2-36.5-37.6-78.2-59.5-78.4-22.3-.2-38.9,42.9-43.2,54.1-5.4,14.1-26.4,68.2-2.7,97.3,34.3,42.1,125.1-14.2,167.6,32.4,16.5,18.1,20.5,46.1,13.5,67.6-9.6,29.3-40.5,48.7-67.6,48.7-31.6,0-37.3-26.5-70.2-35.1h0Z"/><path class="cls-2" d="m2362.9,1819.7c-44.9-15.6-105.1-7.2-145.9,24.3-50,38.7-36.8,85.9-75.7,100-51.1,18.6-90.9-57-173-43.2-10.7,1.8-45.3,7.6-62.2,35.1-20,32.7-1.8,74.5,0,78.4,22.9,50.7,74.8,49.7,170.3,102.7,84.7,47,72.9,63.9,118.9,78.4,76.6,24.1,205.6,7.6,259.5-89.2,57.8-103.9,2.8-253.6-91.9-286.5h0Z"/><path class="cls-2" d="m660.2,1868.4c-87.9,65.7-72.5,132.5-121.6,151.3-49.8,19.1-84.8-42.2-240.5-94.6-68.5-23-105.2-34.9-127-16.2-39.7,33.9-5.7,147.9,43.2,218.9,14.4,20.9,30.2,43.3,59.5,62.2,55.9,36.1,137.8,44.5,197.3,10.8,59.6-33.8,41.6-78.7,113.5-127,40.8-27.4,51.8-16.5,118.9-54,59.9-33.6,96.4-54,100-89.2,3.9-38.4-32.4-83.8-73-89.2-14.5-2-34.8.4-70.3,27h0Z"/><path class="cls-2" d="m2362.7,765.7c-39.9,17.9-23.9,74.9-65.5,102.4-31.1,20.6-52.9-2.8-94.2,20.5-21.7,12.2-54.6,40.6-49.1,69.6,5.3,28.1,45.4,49.5,77.8,45,44.9-6.2,51.5-58.9,94.2-61.4,25.2-1.5,52.9,15.1,59.9,36.5,10.2,30.9-24.3,66.5-43.6,86.4-45,46.5-73.7,39.3-90.1,73.7-14.2,29.8-11.2,74.3,16.4,102.4,1.2,1.2,31.1,30.6,69.6,24.6,42.1-6.6,64.5-50.7,81.9-86,12.3-25,33.5-75.8,36.9-208.8,2.8-109.9,3.6-177.3-36.9-200.6-15.5-9.1-38.7-12.6-57.3-4.3Z"/><path class="cls-2" d="m2359.3,1418.5c-60.4-12.5-108.3,34-115.2,40.7-25.3,24.5-59.6,75.8-42.9,110.7,17,35.5,69.6,18.2,106.2,67.8,15.4,20.9,13.5,34.1,33.9,52,3.2,2.8,36.6,31.5,65.5,24.8,46.8-10.7,76-112.8,49.7-192-5.2-15.4-30-90.2-97.2-104Z"/><path class="cls-2" d="m232.6,376c-22.1-11.2-67.4,32.2-91.5,64.4-10.4,13.8-75.1,100.3-44,169.4,22.1,49.1,72.8,45.7,81.3,88.1,10.3,51.1-56.9,87.4-44,111.8,15.3,29.1,134.8,22.4,159.2-30.5,24.6-53.3-73.5-97.4-64.4-203.3,3-35,16.9-67.1,16.9-138.9,0-45.5-5.6-57-13.5-61Z"/><path class="cls-2" d="m1499.8,67.7c-14.4-40.4-98.4-28.8-443.9-10.2-64.7,3.5-138.9,7.3-149.1,40.7-6.3,20.8,14.7,44.4,23.7,54.2,81.2,88.8,244.3,64.3,379.5,44,105.9-15.9,156.8-38.5,179.6-81.3,6.9-13,16.2-30.5,10.2-47.4Z"/><path class="cls-2" d="m459.6,809.7c-67.7-5-84.9,126.2-203.3,155.9-59.7,15-88.5-10.1-122,16.9-50.3,40.7-52.6,151.7-10.2,179.6,49.2,32.3,118.5-73.8,237.2-54.2,71.6,11.8,90.3,57.8,132.1,44,55.3-18.1,80.1-117.4,67.8-193.1-9.4-58.2-47.7-145.1-101.6-149.1Z"/><path class="cls-2" d="m395.2,1307.8c-63.9.6-80.9-82.1-142.3-81.3-55.8.7-94,69.9-98.3,77.9-6.6,12.4-35.4,66.2-13.6,105,25.3,45.1,103.2,42.4,155.9,40.7,85.4-2.9,94-26.5,288-88.1,62.2-19.7,89.2-26.1,98.3-50.8,17.1-46.4-41-125.4-91.5-125.4-26.9,0-32.7,22.6-101.6,71.2-47.9,33.7-71.8,50.6-94.9,50.8Z"/><path class="cls-2" d="m496.9,1521.2c-27.6-21.1-73.6-20.3-101.6,0-44.5,32.2-38.2,109.7-13.6,155.9,27.1,50.8,78.5,67.5,162.6,94.9,63.6,20.7,132.9,43.2,152.5,16.9,18.5-24.8-9.7-89.8-54.2-122-39.6-28.7-64.7-11.5-94.9-40.7-37.3-35.9-15.5-78-50.8-105Z"/><path class="cls-2" d="m219,1602.6c-50.2-15.7-105.5,10.8-128.8,57.6-24.3,48.9-8.8,110.5,33.9,138.9,54.5,36.3,138.8,9,162.6-54.2,20.8-54.9-9.1-124-67.7-142.3Z"/><path class="cls-1" d="m576.25,631.27l-10.77,47.49m105.74-25.96l-10.77,47.49m105.74-25.96l-10.77,47.49m105.74-25.96l-10.77,47.49m-369.13-133.61l-32.3,142.46,474.86,107.65,32.3-142.46-474.87-107.65Z"/><path class="cls-2" d="m2280.58,566.01l-235.64-27.62c-10.65-1.6-22.56.19-29.37,1.79-7.79,1.84-18.26,5.34-27.08,11.53l-198.44,130.05c-18.6,12.61-17.33,26.69-15.95,32.53s6.54,19.01,28.82,21.97l10.42.62,19.06,80.78c2.76,11.68,13.58,18.37,25.26,15.62s18.37-13.58,15.62-25.26l-15.62-66.18,41.17,4.67,21.59,91.49c9.42,39.9,107.44,37.32,170.71,22.39,63.26-14.93,152.33-55.47,142.69-96.34l-21.36-90.51,80.99-53.02c18.83-11.64,17.33-26.69,15.95-32.53s-6.54-19.01-28.82-21.97h0Zm-87.82,202.58c-9.84,10.54-49.96,36.45-110.31,50.69s-108.79,9.23-121.33,3.97l-16.77-71.05,95.17,11.45c10.65,1.6,22.56-.19,29.37-1.79s18.26-5.34,27.08-11.53l80.02-52.79,16.77,71.05h0Zm-120.57-53.75c-6.12,4.53-20.72,7.97-28.22,6.66l-201.74-23.29,169.07-110.79c6.12-4.53,20.72-7.97,28.22-6.66l201.74,23.29-169.07,110.79Z"/><g id="School_backpack"><path class="cls-2" d="m2165.07,1446.96l-44.01-15.85c-7.26-2.66-15.3,1.08-17.96,8.34-.01.03-.02.06-.03.09l-26.27,72.8c17.67,23.65,26.07,52.96,23.62,82.38l-2.78,32.72,15.21,5.52,15.36-42.64-8.84-3.19c-7.3-2.64-11.07-10.7-8.43-17.99,2.64-7.3,10.7-11.07,17.99-8.43l8.84,3.19,15.36-42.64-19.31-6.99c-7.31-2.59-11.13-10.62-8.53-17.92,2.59-7.31,10.62-11.13,17.92-8.53.03,0,.06.02.08.03l19.41,7,10.8-29.88c2.6-7.29-1.16-15.32-8.43-17.99Z"/><path class="cls-2" d="m2064.54,1685.59h0s7.91-93.25,7.91-93.25c3.87-46.09-26.53-88.08-71.51-98.81.06-.38.18-.73.21-1.12l2.37-27.94c2.89-33.48-21.91-62.96-55.39-65.85-33.48-2.89-62.96,21.91-65.85,55.39,0,.05,0,.11-.01.16l-2.37,27.94c-.03.39.02.76.02,1.14-46.15,2.99-83.19,39.26-87.15,85.35l-7.91,93.25c-36.04-3.06-67.74,23.68-70.79,59.72l-2.38,27.99c-1.75,20.58,13.52,38.68,34.1,40.43h0s27.99,2.38,27.99,2.38c-5.71,28.82,11.5,57.22,41.87,59.87l186.46,15.83c30.33,2.51,52.16-22.59,51.36-51.96,0,0,28,2.37,28,2.38,20.58,1.75,38.68-13.52,40.43-34.1l2.38-27.99c3.06-36.04-23.68-67.74-59.72-70.8h0Zm-154.3-229.04c4.79-42.97,67.84-37.6,65.31,5.54l-2.37,27.92-65.31-5.54,2.37-27.92Zm-47.95,122.65l139.84,11.87c18.32,1.84,16.07,29.24-2.37,27.97l-139.84-11.87c-18.32-1.84-16.07-29.24,2.37-27.97Zm152.37,196.13c-2.46,28.27-27.34,49.22-55.62,46.83l-93.23-7.91c-28.28-2.41-49.27-27.25-46.93-55.53l5.55-65.35c2.45-28.29,27.33-49.28,55.63-46.92l93.23,7.91c28.29,2.45,49.28,27.33,46.92,55.63l-5.55,65.35Z"/><path class="cls-2" d="m1989.47,1740.24l-139.84-11.87-2.78,32.72c-1.04,12.84,8.5,24.11,21.34,25.19l93.23,7.91c5.32.43,10.62-.99,15.02-4.01l-.04.12c.48-.32.94-.67,1.38-1.04.28-.22.59-.42.87-.66,1.08-.87,2.05-1.85,2.89-2.94.05-.06.09-.11.14-.17.57-.75,1.1-1.54,1.56-2.36,1.94-3.07,3.13-6.55,3.46-10.16l.13-1.52c.63-4.42.81-8.95,1.1-13.02l1.54-18.18Z"/><path class="cls-2" d="m1970.91,1682.32l-93.23-7.91c-14.99-1.4-26.21,11.51-25.68,25.99l139.84,11.87c2.96-14.19-5.93-28.8-20.93-29.95Z"/><path class="cls-2" d="m1758.89,1635.78c.62-5.57,6.03-75.46,7.07-78.84l-44.33,7.88,14.19,79.52c7.28-3.86,15.04-6.74,23.08-8.56Z"/><path class="cls-2" d="m1749.12,1488.65c-2.63-3.9-7.93-4.93-11.84-2.3-1.76,1.18-3.01,2.98-3.51,5.04l-11.02,44.7,52.24-9.28-25.87-38.16Z"/></g><path class="cls-2" d="m1166.07,1234.52l-251.51,21.25c-7.69.65-13.39,7.41-12.74,15.1l26.58,314.62c.65,7.69,7.41,13.39,15.1,12.74l251.51-21.25c7.69-.65,13.39-7.41,12.74-15.1l-26.58-314.62c-.65-7.69-7.41-13.39-15.1-12.75Zm-154.27,99.03l72.02-6.09c7.15-.6,13.86,4.1,15.24,11.14,1.64,8.32-4.31,15.98-12.52,16.67l-72.02,6.09c-7.15.6-13.86-4.1-15.24-11.14-1.64-8.32,4.31-15.98,12.52-16.67Zm118.53,163.84l-135.13,11.42c-7.15.6-13.86-4.1-15.24-11.14-1.64-8.32,4.31-15.98,12.52-16.67l135.13-11.42c7.15-.6,13.86,4.1,15.24,11.14,1.63,8.32-4.32,15.98-12.52,16.67Zm-6.12-72.39l-135.13,11.42c-7.15.6-13.86-4.1-15.24-11.14-1.64-8.32,4.31-15.98,12.52-16.67l135.13-11.42c7.15-.6,13.86,4.1,15.24,11.14,1.63,8.32-4.32,15.98-12.52,16.67Z"/></svg>